<svg id="embassy" xmlns="http://www.w3.org/2000/svg" xmlns:xlink="http://www.w3.org/1999/xlink" width="100.931" height="101" viewBox="0 0 100.931 101">
  <defs>
    <linearGradient id="linear-gradient" x1="0.5" x2="0.5" y2="1" gradientUnits="objectBoundingBox">
      <stop offset="0" stop-color="#00b0eb"/>
      <stop offset="1" stop-color="#d1e8ff"/>
    </linearGradient>
  </defs>
  <path id="Path_1052" data-name="Path 1052" d="M98.959,57.562H85.16v-7.1a1.971,1.971,0,0,0-1.509-1.917l-7.842-1.889A25.626,25.626,0,0,0,52.437,24.915v-5.2H74.121a1.971,1.971,0,0,0,1.394-3.365L69.024,9.856l6.491-6.491A1.971,1.971,0,0,0,74.121,0H50.465a1.971,1.971,0,0,0-1.971,1.971V24.915A25.626,25.626,0,0,0,25.122,46.659L17.28,48.549a1.971,1.971,0,0,0-1.509,1.917v7.1H1.971A1.971,1.971,0,0,0,0,59.533V98.959a1.971,1.971,0,0,0,1.971,1.971H41.594a1.971,1.971,0,0,0,0-3.943H19.713V93.045h61.5v3.943H59.336a1.971,1.971,0,0,0,0,3.943H98.959a1.971,1.971,0,0,0,1.971-1.971V59.533A1.971,1.971,0,0,0,98.959,57.562ZM52.437,3.943H69.362l-4.52,4.52a1.972,1.972,0,0,0,0,2.788l4.52,4.52H52.437ZM50.465,28.781a21.562,21.562,0,0,1,21.15,16.868L50.927,40.664a1.972,1.972,0,0,0-.924,0L29.314,45.649A21.563,21.563,0,0,1,50.465,28.781ZM19.713,52.018l30.752-7.41,30.752,7.41v5.544h-61.5ZM31.541,61.5V89.1H27.6V61.5Zm3.943,0h9.068V89.1H35.483Zm13.011,0h3.943V89.1H48.494Zm7.885,0h9.068V89.1H56.379Zm13.011,0h3.943V89.1H69.39ZM3.943,96.988V61.5H23.656V89.1H19.713V83.189a1.971,1.971,0,0,0-1.971-1.971H9.857a1.971,1.971,0,0,0-1.971,1.971v7.885a1.971,1.971,0,0,0,1.971,1.971H15.77v3.943ZM15.77,89.1H11.828V85.16H15.77Zm81.218,7.885H85.16V93.045h5.914a1.971,1.971,0,0,0,1.971-1.971V83.189a1.971,1.971,0,0,0-1.971-1.971H83.189a1.971,1.971,0,0,0-1.971,1.971V89.1H77.275V61.5H96.988ZM85.16,89.1V85.16H89.1V89.1Z" transform="translate(0 0)" fill="url(#linear-gradient)"/>
  <path id="Path_1053" data-name="Path 1053" d="M412,333.971v7.885a1.971,1.971,0,0,0,1.971,1.971h7.885a1.971,1.971,0,0,0,1.971-1.971v-7.885A1.971,1.971,0,0,0,421.857,332h-7.885A1.971,1.971,0,0,0,412,333.971Zm3.943,1.971h3.943v3.943h-3.943Z" transform="translate(-330.782 -266.553)" fill="url(#linear-gradient)"/>
  <path id="Path_1054" data-name="Path 1054" d="M41.971,343.828h7.885a1.971,1.971,0,0,0,1.971-1.971v-7.885A1.971,1.971,0,0,0,49.857,332H41.971A1.971,1.971,0,0,0,40,333.971v7.885A1.971,1.971,0,0,0,41.971,343.828Zm1.971-7.885h3.943v3.943H43.943Z" transform="translate(-32.115 -266.553)" fill="url(#linear-gradient)"/>
  <circle id="Ellipse_63" data-name="Ellipse 63" cx="2" cy="2" r="2" transform="translate(48 97)" fill="url(#linear-gradient)"/>
</svg>
