<svg xmlns="http://www.w3.org/2000/svg" xmlns:xlink="http://www.w3.org/1999/xlink" width="240.935" height="200.139" viewBox="0 0 240.935 200.139">
  <defs>
    <linearGradient id="linear-gradient" x1="0.5" x2="0.5" y2="1" gradientUnits="objectBoundingBox">
      <stop offset="0" stop-color="#00b0eb"/>
      <stop offset="1" stop-color="#d1e8ff"/>
    </linearGradient>
  </defs>
  <g id="Group_185" data-name="Group 185" transform="translate(0)">
    <path id="Path_1042" data-name="Path 1042" d="M7768.286-1471.089h-10.538v-14.406a29.967,29.967,0,0,0-29.933-29.933h-36.637a40.993,40.993,0,0,0-1.25-18.188,41.079,41.079,0,0,0-44.717-29.05,2.369,2.369,0,0,0-2.053,2.657,2.374,2.374,0,0,0,2.657,2.051,36.35,36.35,0,0,1,39.566,25.708,36.245,36.245,0,0,1,.979,16.822h-3.011a33.435,33.435,0,0,0-.806-15.969,33.572,33.572,0,0,0-41.763-22.465,33.57,33.57,0,0,0-23.271,38.435h-3.02a36.76,36.76,0,0,1,15.822-36.784,2.374,2.374,0,0,0,.674-3.288,2.374,2.374,0,0,0-3.289-.674,41.542,41.542,0,0,0-18.006,40.746H7572.95a29.967,29.967,0,0,0-29.933,29.933v92.692a29.967,29.967,0,0,0,29.933,29.933h154.865a29.967,29.967,0,0,0,29.933-29.933v-14.242h10.538a15.683,15.683,0,0,0,15.666-15.666v-32.713A15.684,15.684,0,0,0,7768.286-1471.089Zm-126.139-78.227A28.818,28.818,0,0,1,7678-1530.031a28.726,28.726,0,0,1,.5,14.6h-14.3l.8-.845-.028-.1-.086-.281-.082-.274-.079-.267-.047-.153-.018-.058-.176-.586-.016-.049-.008-.03-.251-.836-.052-.174-.052-.169-.411-1.368-.059-.2-.022-.074-.166-.553-.02-.066-.02-.064-.235-.785-.059-.19-.055-.185-.1-.328-.055-.18-.032-.11-.188-.625-.091-.3-.057-.186-.127-.424-.025-.083-.023-.081-.162-.54-.022-.072-.014-.044-.24-.8-.059-.2-.035-.12-.4-1.325-.049-.164-.017-.053-.146-.493-.008-.024-.007-.022-.174-.58-.076-.253-.024-.082-.13-.432-.017-.056-.006-.018-4.923-1.162-3.468,3.683,4.923,1.161,3.369,11.214h-4.573l-.011-.034-.084-.283-.039-.128-.085-.282-.1-.347-.1-.347-.1-.346-.08-.263-.065-.218-.063-.212-.1-.347-.1-.346-.1-.347-.083-.275,0-.02-.083-.274-.075-.25-.022-.073-.074-.247-.085-.285-.086-.286-.085-.285-.086-.285-.086-.285-.086-.285-.085-.285-.087-.285-.085-.285-.085-.285-.086-.285-.086-.285-.086-.285-.085-.285-.086-.285-.06-.2-.055-.182-.058-.19-.085-.285-.086-.285-.085-.285-.074-.244-.025-.086-.072-.24-.085-.285-.087-.285-.085-.285-.086-.285-.082-.278-4.924-1.161-3.467,3.682,4.922,1.161,2.6,8.646h-4.573l-.03-.1-.087-.285-.085-.285-.085-.285-.026-.087-.13-.434-.016-.049-.085-.285-.085-.281,0-.015-.081-.273-.024-.079-.136-.45-.012-.041-.086-.285-.082-.275-.015-.048-.074-.248-.021-.072-.141-.467-.01-.032-.085-.285-.053-.172-.1-.322-.023-.076-.02-.065-.145-.482-.006-.024-.007-.019-.23-.768-.021-.068-.018-.057-.15-.5,0-.014,0-.012-.235-.784-.018-.059-.015-.05-.155-.514,0-.006v0l-.24-.8-.016-.05-.013-.042-.077-.257-.014-.048-4.924-1.162-3.467,3.682,4.923,1.162,1.854,6.172h-9.855a3.246,3.246,0,0,0-3.3-.889,3.218,3.218,0,0,0-1.43.889h-5.444A28.814,28.814,0,0,1,7642.147-1549.315ZM7743.933-1392.8a16.136,16.136,0,0,1-16.117,16.118H7572.95a16.136,16.136,0,0,1-16.117-16.118v-11.132h22.886l7.243-7.243h22.449a10.761,10.761,0,0,0,10.172,7.292,10.758,10.758,0,0,0,10.746-10.745,10.758,10.758,0,0,0-10.746-10.745,10.761,10.761,0,0,0-10.172,7.292H7584.1l-7.243,7.242h-20.024v-31.1h22.934l10.347,10.347h36.432a10.764,10.764,0,0,0,10.174,7.292,10.757,10.757,0,0,0,10.744-10.745,10.757,10.757,0,0,0-10.744-10.746,10.764,10.764,0,0,0-10.174,7.292h-33.571l-10.346-10.347h-25.795v-11.492h25.561l9.087,9.086h10.639a10.763,10.763,0,0,0,10.173,7.292,10.758,10.758,0,0,0,10.745-10.745,10.758,10.758,0,0,0-10.745-10.745,10.763,10.763,0,0,0-10.173,7.292h-7.777l-9.087-9.086h-28.422v-18.243a16.136,16.136,0,0,1,16.117-16.118h154.865a16.136,16.136,0,0,1,16.117,16.118v14.406h-45.986a15.683,15.683,0,0,0-15.665,15.666v32.713a15.683,15.683,0,0,0,15.665,15.666h45.986Zm-128.187-21.828a3.842,3.842,0,0,1,3.837-3.838,3.843,3.843,0,0,1,3.839,3.838,3.843,3.843,0,0,1-3.839,3.838A3.841,3.841,0,0,1,7615.746-1414.631Zm17.134-20.421a3.842,3.842,0,0,1,3.839-3.838,3.842,3.842,0,0,1,3.837,3.838,3.842,3.842,0,0,1-3.837,3.838A3.843,3.843,0,0,1,7632.88-1435.052Zm-24.426-19.66a3.842,3.842,0,0,1,3.838-3.838,3.842,3.842,0,0,1,3.837,3.838,3.842,3.842,0,0,1-3.837,3.838A3.842,3.842,0,0,1,7608.454-1454.712Zm161.684,32a1.875,1.875,0,0,1-1.852,1.85h-70.34a1.875,1.875,0,0,1-1.851-1.85v-32.713a1.875,1.875,0,0,1,1.851-1.851h70.34a1.876,1.876,0,0,1,1.852,1.851Z" transform="translate(-7543.017 1563.009)" fill="url(#linear-gradient)"/>
    <path id="Path_1043" data-name="Path 1043" d="M7903.054-1312.481a8.429,8.429,0,0,0-8.429,8.429,8.429,8.429,0,0,0,8.429,8.429,8.429,8.429,0,0,0,8.429-8.429A8.429,8.429,0,0,0,7903.054-1312.481Z" transform="translate(-7732.708 1427.85)" fill="url(#linear-gradient)"/>
    <path id="Path_1044" data-name="Path 1044" d="M7723.242-1482.454a2.843,2.843,0,0,0,3.541,1.9h0a2.843,2.843,0,0,0,1.9-3.541,2.843,2.843,0,0,0-3.54-1.905h0a2.842,2.842,0,0,0-1.9,3.54Z" transform="translate(-7640.183 1521.525)" fill="url(#linear-gradient)"/>
    <path id="Path_1045" data-name="Path 1045" d="M7736.733-1502.776a2.441,2.441,0,0,0,1.636-3.039,2.441,2.441,0,0,0-3.04-1.635,2.441,2.441,0,0,0-1.635,3.039A2.44,2.44,0,0,0,7736.733-1502.776Z" transform="translate(-7645.831 1533.091)" fill="url(#linear-gradient)"/>
    <path id="Path_1046" data-name="Path 1046" d="M7756.842-1517.61h0a2.036,2.036,0,0,0,1.364-2.537h0a2.037,2.037,0,0,0-2.537-1.365h0a2.037,2.037,0,0,0-1.364,2.537A2.037,2.037,0,0,0,7756.842-1517.61Z" transform="translate(-7656.959 1540.668)" fill="url(#linear-gradient)"/>
    <path id="Path_1047" data-name="Path 1047" d="M7782.354-1520.5h0a1.635,1.635,0,0,0,1.1-2.035,1.635,1.635,0,0,0-2.036-1.095,1.633,1.633,0,0,0-1.095,2.035A1.633,1.633,0,0,0,7782.354-1520.5Z" transform="translate(-7671.002 1541.804)" fill="url(#linear-gradient)"/>
    <path id="Path_1048" data-name="Path 1048" d="M7805.093-1510.746a1.232,1.232,0,0,0,.825-1.534,1.23,1.23,0,0,0-1.533-.825,1.232,1.232,0,0,0-.825,1.533A1.231,1.231,0,0,0,7805.093-1510.746Z" transform="translate(-7683.551 1536.114)" fill="url(#linear-gradient)"/>
    <path id="Path_1049" data-name="Path 1049" d="M7818.107-1491.47a3.029,3.029,0,0,0,2.391-3.557,3.029,3.029,0,0,0-3.556-2.392,3.029,3.029,0,0,0-2.392,3.557A3.029,3.029,0,0,0,7818.107-1491.47Z" transform="translate(-7689.478 1527.654)" fill="url(#linear-gradient)"/>
    <path id="Path_1050" data-name="Path 1050" d="M7820.507-1471.113a2.526,2.526,0,0,0-1.993,2.964,2.526,2.526,0,0,0,2.964,1.993,2.526,2.526,0,0,0,1.993-2.964A2.525,2.525,0,0,0,7820.507-1471.113Z" transform="translate(-7691.621 1513.457)" fill="url(#linear-gradient)"/>
    <path id="Path_1051" data-name="Path 1051" d="M7744.033-1552.986a2.425,2.425,0,0,0,3.284-.987,2.426,2.426,0,0,0-.986-3.284,2.426,2.426,0,0,0-3.285.987A2.426,2.426,0,0,0,7744.033-1552.986Z" transform="translate(-7650.776 1560.062)" fill="url(#linear-gradient)"/>
  </g>
</svg>
