<?xml version="1.0" encoding="utf-8"?>
<!-- Generator: Adobe Illustrator 25.1.0, SVG Export Plug-In . SVG Version: 6.00 Build 0)  -->
<svg version="1.0" id="insurance" xmlns="http://www.w3.org/2000/svg" xmlns:xlink="http://www.w3.org/1999/xlink" x="0px" y="0px"
	 viewBox="0 0 123 123" style="enable-background:new 0 0 123 123;" xml:space="preserve">
<style type="text/css">
	.st0{fill:url(#Path_92_2_);}
</style>
<g id="sync_1_" transform="translate(0 38.085) rotate(-22)">
	<g id="Group_81_1_">
		
			<linearGradient id="Path_92_2_" gradientUnits="userSpaceOnUse" x1="-1782.2994" y1="115.7454" x2="-1782.2994" y2="116.9515" gradientTransform="matrix(94.2678 38.0845 38.0868 -94.2621 163653.375 78885.7891)">
			<stop  offset="0" style="stop-color:#00B0EB"/>
			<stop  offset="1" style="stop-color:#D1E8FF"/>
		</linearGradient>
		<path id="Path_92_1_" class="st0" d="M44.4,84.4c-20.4-2-36-19.2-36.1-39.6C8.4,31.5,15,19.1,26,11.6l4.7,6.3
			c1.2,1.6,3.4,1.9,5,0.7c0.7-0.5,1.1-1.2,1.3-2l7.2-28.7c0.5-1.9-0.7-3.9-2.6-4.3c-0.3-0.1-0.6-0.1-0.9-0.1l-28.8-0.1
			c-2,0-3.6,1.6-3.6,3.6c0,0.8,0.3,1.5,0.7,2.1l3.9,5.2C-3.6,5.9-13.3,24.8-13.2,44.9c0.1,30.7,22.8,56.7,53.4,60.8
			c1.8,0.2,3.5-0.9,3.9-2.7L47.7,89c0.5-1.9-0.7-3.9-2.6-4.4C44.8,84.5,44.6,84.5,44.4,84.4z M94.4,4.2C84.6-7,71.2-14.3,56.4-16.2
			c-1.8-0.2-3.5,0.9-3.9,2.7L48.9,0.6c-0.5,1.9,0.7,3.9,2.6,4.4c0.2,0,0.4,0.1,0.5,0.1C72.2,7,88,24.4,88.1,44.9
			c0,13.3-6.6,25.6-17.6,33l-4.7-6.3c-1.2-1.6-3.4-1.9-5-0.7c-0.7,0.5-1.1,1.2-1.3,2l-7.2,28.7c-0.5,1.9,0.7,3.9,2.6,4.3
			c0.3,0.1,0.6,0.1,0.9,0.1l28.8,0.1c2,0,3.6-1.6,3.6-3.6c0-0.8-0.3-1.5-0.7-2.1l-3.9-5.2c27.9-19.6,34.5-58,14.8-85.8
			C97.1,7.6,95.8,5.8,94.4,4.2z"/>
	</g>
</g>
</svg>
