<svg xmlns="http://www.w3.org/2000/svg" xmlns:xlink="http://www.w3.org/1999/xlink" width="117.467" height="87.183" viewBox="0 0 117.467 87.183">
  <defs>
    <linearGradient id="linear-gradient" x1="-0.332" y1="-0.949" x2="1.382" y2="1.827" gradientUnits="objectBoundingBox">
      <stop offset="0" stop-color="#00b0eb"/>
      <stop offset="1" stop-color="#d1e8ff"/>
    </linearGradient>
  </defs>
  <g id="membership" transform="translate(0)">
    <path id="Path_93" data-name="Path 93" d="M106,0h-62.4a2.294,2.294,0,1,0,0,4.589H106a6.89,6.89,0,0,1,6.883,6.883v64.24A6.89,6.89,0,0,1,106,82.594H11.471a6.89,6.89,0,0,1-6.883-6.883V11.471a6.89,6.89,0,0,1,6.883-6.883H25.237a2.294,2.294,0,0,0,0-4.589H11.471A11.484,11.484,0,0,0,0,11.471v64.24A11.484,11.484,0,0,0,11.471,87.183H106a11.484,11.484,0,0,0,11.471-11.471V11.471A11.484,11.484,0,0,0,106,0Zm0,0" transform="translate(0 0)" fill="url(#linear-gradient)"/>
    <path id="Path_94" data-name="Path 94" d="M76.025,52A22.025,22.025,0,1,0,98.05,74.025,22.05,22.05,0,0,0,76.025,52ZM66.063,88.323a10.795,10.795,0,0,1,19.925,0,17.382,17.382,0,0,1-19.925,0Zm5.788-15.4v-.862a4.175,4.175,0,1,1,8.349,0v.862a4.175,4.175,0,1,1-8.349,0ZM89.508,85.068a15.4,15.4,0,0,0-6.826-6.457,8.722,8.722,0,0,0,2.107-5.69v-.862a8.763,8.763,0,0,0-17.526,0v.862a8.722,8.722,0,0,0,2.107,5.69,15.4,15.4,0,0,0-6.826,6.457,17.437,17.437,0,1,1,26.965,0Zm0,0" transform="translate(-41.611 -40.07)" fill="url(#linear-gradient)"/>
    <path id="Path_95" data-name="Path 95" d="M296.294,122.943h33.038a2.294,2.294,0,0,0,2.294-2.294V102.294A2.294,2.294,0,0,0,329.332,100H296.294A2.294,2.294,0,0,0,294,102.294v18.354A2.294,2.294,0,0,0,296.294,122.943Zm2.294-18.354h28.449v13.766H298.589Zm0,0" transform="translate(-226.548 -77.057)" fill="url(#linear-gradient)"/>
    <path id="Path_96" data-name="Path 96" d="M296.294,224.589h33.038a2.294,2.294,0,0,0,0-4.589H296.294a2.294,2.294,0,0,0,0,4.589Zm0,0" transform="translate(-226.548 -169.526)" fill="url(#linear-gradient)"/>
    <path id="Path_97" data-name="Path 97" d="M294.672,263.916a2.293,2.293,0,1,0-.672-1.622A2.313,2.313,0,0,0,294.672,263.916Zm0,0" transform="translate(-226.548 -200.349)" fill="url(#linear-gradient)"/>
    <path id="Path_98" data-name="Path 98" d="M334.672,260.672a2.293,2.293,0,1,0,1.622-.672A2.313,2.313,0,0,0,334.672,260.672Zm0,0" transform="translate(-257.371 -200.349)" fill="url(#linear-gradient)"/>
    <path id="Path_99" data-name="Path 99" d="M390.978,260H376.294a2.294,2.294,0,1,0,0,4.589h14.683a2.294,2.294,0,1,0,0-4.589Zm0,0" transform="translate(-288.194 -200.349)" fill="url(#linear-gradient)"/>
    <path id="Path_100" data-name="Path 100" d="M111.217,266.376a2.3,2.3,0,0,0-2.294-2.294h-28.3a2.294,2.294,0,1,0,0,4.589h28.3A2.3,2.3,0,0,0,111.217,266.376Zm0,0" transform="translate(-60.36 -203.494)" fill="url(#linear-gradient)"/>
    <path id="Path_101" data-name="Path 101" d="M96.626,304.082a2.294,2.294,0,1,0,0,4.589h20.955a2.294,2.294,0,1,0,0-4.589Zm0,0" transform="translate(-72.689 -234.317)" fill="url(#linear-gradient)"/>
    <path id="Path_102" data-name="Path 102" d="M142.294,4.589a2.295,2.295,0,0,0,2.294-2.294,2.294,2.294,0,1,0-3.916,1.622A2.313,2.313,0,0,0,142.294,4.589Zm0,0" transform="translate(-107.88 0)" fill="url(#linear-gradient)"/>
  </g>
</svg>
