<svg xmlns="http://www.w3.org/2000/svg" xmlns:xlink="http://www.w3.org/1999/xlink" width="193.904" height="220.917" viewBox="0 0 193.904 220.917">
  <defs>
    <linearGradient id="linear-gradient" x1="0.5" x2="0.5" y2="1" gradientUnits="objectBoundingBox">
      <stop offset="0" stop-color="#00b0eb"/>
      <stop offset="1" stop-color="#d1e8ff"/>
    </linearGradient>
  </defs>
  <path id="Path_1035" data-name="Path 1035" d="M6978.317-483.888l-96.942,56.373v109.588l96.929,54.956,96.976-56.315V-425.7Zm77.236,61.694-77.231,42.98-77.236-44.54,77.126-44.85Zm-161.018,9.855,76.878,44.333c-.009.293-.017.6-.024.913-.068,2.748-.114,6.7-.141,11.758-.044,8.462-.026,20.156.049,34.756.073,14.479.193,29.01.278,38.665l-23.455-13.3v-54.527A11.4,11.4,0,0,0,6956-360.569a11.4,11.4,0,0,0-11.387-11.386,11.4,11.4,0,0,0-11.386,11.386,11.4,11.4,0,0,0,8.314,10.962v50.665l-18.776-10.646v-19.925a11.406,11.406,0,0,0,7.878-10.831,11.4,11.4,0,0,0-11.386-11.386,11.4,11.4,0,0,0-11.387,11.386,11.4,11.4,0,0,0,8.315,10.962v16.062l-21.648-12.274Zm50.075,56.576a4.81,4.81,0,0,1-4.8-4.806,4.81,4.81,0,0,1,4.8-4.806,4.811,4.811,0,0,1,4.806,4.806A4.811,4.811,0,0,1,6944.611-355.763Zm-25.355,20.225a4.813,4.813,0,0,1-4.808-4.806,4.813,4.813,0,0,1,4.808-4.806,4.812,4.812,0,0,1,4.806,4.806A4.812,4.812,0,0,1,6919.256-335.538Zm84.453,18.828a4.811,4.811,0,0,1-4.8-4.806,4.811,4.811,0,0,1,4.8-4.806,4.812,4.812,0,0,1,4.808,4.806A4.812,4.812,0,0,1,7003.709-316.71Zm21-47.575a4.813,4.813,0,0,1-4.807-4.806,4.812,4.812,0,0,1,4.807-4.806,4.813,4.813,0,0,1,4.808,4.806A4.813,4.813,0,0,1,7024.712-364.285Zm21.448,19.739a4.81,4.81,0,0,1-4.8-4.806,4.81,4.81,0,0,1,4.8-4.806,4.812,4.812,0,0,1,4.807,4.806A4.812,4.812,0,0,1,7046.16-344.545Zm3.509,24.913v-18.889a11.408,11.408,0,0,0,7.879-10.831,11.4,11.4,0,0,0-11.388-11.386,11.4,11.4,0,0,0-11.386,11.386,11.4,11.4,0,0,0,8.314,10.962v22.579l-14.868,8.634V-358.26a11.4,11.4,0,0,0,7.878-10.831,11.4,11.4,0,0,0-11.387-11.386,11.4,11.4,0,0,0-11.387,11.386,11.405,11.405,0,0,0,8.316,10.962v54.773l-14.423,8.375v-15.7a11.406,11.406,0,0,0,7.878-10.831,11.4,11.4,0,0,0-11.388-11.386,11.4,11.4,0,0,0-11.385,11.386,11.4,11.4,0,0,0,8.313,10.962v19.394l-15.9,9.236c-.291-32.031-.518-74-.176-85.7l77.561-43.164v83.925Z" transform="translate(-6881.375 483.888)" fill="url(#linear-gradient)"/>
</svg>
