<svg id="Puzzle_2_" xmlns="http://www.w3.org/2000/svg" xmlns:xlink="http://www.w3.org/1999/xlink" width="86.484" height="123" viewBox="0 0 86.484 123">
  <defs>
    <style>
      .cls-1 {
        fill: url(#linear-gradient);
      }
    </style>
    <linearGradient id="linear-gradient" x1="0.5" y1="1" x2="0.5" gradientUnits="objectBoundingBox">
      <stop offset="0" stop-color="#00b0eb"/>
      <stop offset="1" stop-color="#d1e8ff"/>
    </linearGradient>
  </defs>
  <g id="Group_80" data-name="Group 80" transform="translate(0 0)">
    <path id="Path_91" data-name="Path 91" class="cls-1" d="M119.242,123a14.428,14.428,0,0,1-14.414-14.414,38.653,38.653,0,0,1,.926-7.207H79.6a3.6,3.6,0,0,1-3.6-3.6V70.407a3.6,3.6,0,0,1,1.422-2.868,3.637,3.637,0,0,1,3.143-.605,44.731,44.731,0,0,0,9.85,1.774,7.207,7.207,0,0,0,0-14.414,44.732,44.732,0,0,0-9.85,1.774A3.6,3.6,0,0,1,76,52.593V25.225a3.6,3.6,0,0,1,3.6-3.6h26.15a38.653,38.653,0,0,1-.926-7.207,14.414,14.414,0,0,1,28.828,0,38.653,38.653,0,0,1-.926,7.207h26.15a3.6,3.6,0,0,1,3.6,3.6V52.593a3.6,3.6,0,0,1-4.564,3.473,44.732,44.732,0,0,0-9.85-1.774,7.207,7.207,0,0,0,0,14.414,44.731,44.731,0,0,0,9.85-1.774,3.6,3.6,0,0,1,4.564,3.473V97.775a3.6,3.6,0,0,1-3.6,3.6h-26.15a38.673,38.673,0,0,1,.926,7.207A14.428,14.428,0,0,1,119.242,123Z" transform="translate(-76 0)"/>
  </g>
</svg>
