<svg id="sapling" xmlns="http://www.w3.org/2000/svg" xmlns:xlink="http://www.w3.org/1999/xlink" width="100.931" height="94.623" viewBox="0 0 100.931 94.623">
  <defs>
    <linearGradient id="linear-gradient" x1="0.5" x2="0.5" y2="1" gradientUnits="objectBoundingBox">
      <stop offset="0" stop-color="#00b0eb"/>
      <stop offset="1" stop-color="#d1e8ff"/>
    </linearGradient>
  </defs>
  <path id="Path_1060" data-name="Path 1060" d="M14.165,173.585l9.49,4.744v10.609a1.971,1.971,0,0,0,1.971,1.971h20.9a1.971,1.971,0,0,0,1.971-1.971V163.2a11.668,11.668,0,0,0-10.525-11.649c-.023-.007-8.339-1.3-12.2-5.163l-4.427-4.425a7.833,7.833,0,0,0-5.575-2.31v-15.77a7.885,7.885,0,0,0-15.77,0v26.778a25.629,25.629,0,0,0,14.165,22.921Zm-10.223-49.7a3.943,3.943,0,1,1,7.885,0v16.827a7.883,7.883,0,0,0-1.632,12.4l10.1,10.1a1.971,1.971,0,0,0,2.788-2.788l-10.1-10.1a3.942,3.942,0,0,1,1.473-6.505h0a3.938,3.938,0,0,1,4.1.932l4.427,4.425c4.571,4.57,14.557,6.29,14.577,6.3a7.741,7.741,0,0,1,6.99,7.728v23.764H27.6V177.11a1.971,1.971,0,0,0-1.09-1.763l-10.58-5.289A21.567,21.567,0,0,1,3.943,150.663Z" transform="translate(0 -96.287)" fill="url(#linear-gradient)"/>
  <path id="Path_1061" data-name="Path 1061" d="M133.6,61.339a1.971,1.971,0,0,0,3.943,0V55.425h7.546a20.075,20.075,0,0,0,20.052-20.052V25.856a1.971,1.971,0,0,0-3.365-1.394,11.413,11.413,0,0,1-8.124,3.365,20.035,20.035,0,0,0-16.109,8.126V17.971a1.971,1.971,0,1,0-3.943,0v10.1a20.035,20.035,0,0,0-16.109-8.126,11.413,11.413,0,0,1-8.124-3.365A1.971,1.971,0,0,0,106,17.971v9.517A20.075,20.075,0,0,0,126.052,47.54H133.6ZM153.65,31.77a15.344,15.344,0,0,0,7.546-1.963v5.567a16.128,16.128,0,0,1-16.109,16.109h-3.6L152.523,43.2a1.971,1.971,0,0,0-2.366-3.154l-12.616,9.462V47.879A16.128,16.128,0,0,1,153.65,31.77Zm-43.708-4.282V21.921a15.345,15.345,0,0,0,7.546,1.963A16.128,16.128,0,0,1,133.6,39.994v1.632l-12.616-9.462a1.971,1.971,0,1,0-2.366,3.154L129.656,43.6h-3.6A16.128,16.128,0,0,1,109.943,27.488Z" transform="translate(-85.104 -15.999)" fill="url(#linear-gradient)"/>
  <circle id="Ellipse_64" data-name="Ellipse 64" cx="2" cy="2" r="2" transform="translate(88.196 71)" fill="url(#linear-gradient)"/>
  <path id="Path_1062" data-name="Path 1062" d="M306.609,116a7.894,7.894,0,0,0-7.885,7.885v15.77a7.832,7.832,0,0,0-5.575,2.31l-4.428,4.426c-3.772,3.773-12.162,5.155-12.182,5.161A11.672,11.672,0,0,0,266,163.2v25.735a1.971,1.971,0,0,0,1.971,1.971h20.9a1.971,1.971,0,0,0,1.971-1.971V178.329l6.452-3.225a1.971,1.971,0,0,0-1.763-3.527l-7.542,3.77a1.972,1.972,0,0,0-1.09,1.764v9.857H269.943V163.2a7.745,7.745,0,0,1,7-7.729c.02-.006,9.743-1.476,14.562-6.294l4.428-4.426a3.939,3.939,0,0,1,4.1-.932h0a3.943,3.943,0,0,1,1.473,6.506l-10.1,10.1a1.971,1.971,0,0,0,2.788,2.788l10.1-10.1a7.884,7.884,0,0,0-1.633-12.4V123.885a3.943,3.943,0,1,1,7.885,0v26.778a21.743,21.743,0,0,1-2.632,10.355,1.971,1.971,0,1,0,3.464,1.883,25.7,25.7,0,0,0,3.111-12.238V123.885A7.894,7.894,0,0,0,306.609,116Z" transform="translate(-213.563 -96.287)" fill="url(#linear-gradient)"/>
</svg>
